# xmcd
#
# Track frame offsets:
#	150
#	16859
#	43196
#	58321
#	77893
#	100737
#	118910
#	137607
#	153925
#	165180
#	179076
#	193151
#	208077
#	223459
#	240422
#	253082
#	269500
#
# Disc length: 3809 seconds
#
# Revision: 1
# Processed by: cddbd v1.4PL0 Copyright (c) Steve Scherf et al.
# Submitted via: audiograbber 1.82.02
#
DISCID=fe0edf11
DTITLE=Various Artist - It`s Our Backyard Vol18
DYEAR=1900
DGENRE=Country
TTITLE0=Adam Brand - New England Highway
TTITLE1=Beccy Cole - Rockabilly Fever
TTITLE2=Amazing Rhytham Aces - Third Rate Romance
TTITLE3=Darren Coggan - Big Springs
TTITLE4=Southband - A Thousand Miles Away
TTITLE5=Col Finley - Hey Girl
TTITLE6=Crakajak - Breaking Down
TTITLE7=Casey Watt - In Control (And Lovin It)
TTITLE8=Dan Brodie and Broken Arrow - Sarah
TTITLE9=Barramundi Brothers - 1848 Days
TTITLE10=Kerry Kennedy and Double Barrell - Picture Show
TTITLE11=Chrome Daddies - Drive For A Livin
TTITLE12=Chris Callaghan - Whatever It Takes
TTITLE13=John Wibberley - Watching Her
TTITLE14=Luella Widt and Blue Heeler Band - Hey Yeah
TTITLE15=Luke O`Shea and Medicine Wheel - Standing In The Rain
TTITLE16=Wolverines - I Had A Dream
EXTD=
EXTT0=
EXTT1=
EXTT2=
EXTT3=
EXTT4=
EXTT5=
EXTT6=
EXTT7=
EXTT8=
EXTT9=
EXTT10=
EXTT11=
EXTT12=
EXTT13=
EXTT14=
EXTT15=
EXTT16=
PLAYORDER=
